<svg width="34" height="34" viewBox="0 0 34 34" fill="none" xmlns="http://www.w3.org/2000/svg">
<path d="M17 4.25V7.08333" stroke="white" stroke-width="2" stroke-linecap="round" stroke-linejoin="round"/>
<path d="M5.11842 12.4001C4.56592 13.8295 4.25 15.3765 4.25 17C4.25 24.0422 9.95775 29.75 17 29.75C24.0422 29.75 29.75 24.0422 29.75 17C29.75 9.95775 24.0422 4.25 17 4.25" stroke="white" stroke-width="2" stroke-linecap="round" stroke-linejoin="round"/>
<path d="M15.0025 15.0026L7.98996 7.99005" stroke="white" stroke-width="2" stroke-linecap="round" stroke-linejoin="round"/>
<path d="M19.0035 14.9966C20.1099 16.103 20.1099 17.897 19.0035 19.0035C17.897 20.11 16.103 20.11 14.9965 19.0035C13.89 17.897 13.89 16.103 14.9965 14.9966C16.103 13.8901 17.897 13.8901 19.0035 14.9966" stroke="white" stroke-width="2" stroke-linecap="round" stroke-linejoin="round"/>
</svg>
