<svg width="32" height="32" viewBox="0 0 32 32" fill="none" xmlns="http://www.w3.org/2000/svg">
<path d="M24.6667 24.7522V27.3319C24.6667 27.6016 24.5043 27.8447 24.2551 27.9478C24.006 28.051 23.7193 27.994 23.5286 27.8033L20.4775 24.7522" stroke="white" stroke-width="1.5" stroke-linecap="round" stroke-linejoin="round"/>
<path d="M23.9999 12.6665H24.6713C26.5097 12.6665 27.9999 14.1568 27.9999 15.9951V21.4235C27.9999 23.2618 26.5097 24.7521 24.6713 24.7521V24.7521" stroke="white" stroke-width="1.5" stroke-linecap="round" stroke-linejoin="round"/>
<path d="M20.4822 24.7523H16.6619C14.8236 24.7523 13.3333 23.262 13.3333 21.4237V20" stroke="white" stroke-width="1.5" stroke-linecap="round" stroke-linejoin="round"/>
<path fill-rule="evenodd" clip-rule="evenodd" d="M11.608 16L8.47137 19.1368C8.2807 19.3274 7.99395 19.3845 7.74484 19.2813C7.49572 19.1781 7.3333 18.935 7.3333 18.6653V16H7.32858C6.44577 16 5.59912 15.6493 4.97489 15.0251C4.35065 14.4008 3.99997 13.5542 3.99997 12.6714V7.32861C3.99997 5.49027 5.49024 4 7.32858 4H16.6714C18.5097 4 20 5.49027 20 7.32861V12.6714C20 13.5542 19.6493 14.4008 19.025 15.0251C18.4008 15.6493 17.5542 16 16.6714 16H11.608Z" stroke="white" stroke-width="1.5" stroke-linecap="round" stroke-linejoin="round"/>
</svg>
