<svg width="32" height="32" viewBox="0 0 32 32" fill="none" xmlns="http://www.w3.org/2000/svg">
<path d="M10.331 15.2278V19.7203" stroke="white" stroke-width="1.5" stroke-linecap="round" stroke-linejoin="round"/>
<path fill-rule="evenodd" clip-rule="evenodd" d="M13.5256 18.8786V18.8786C13.5256 19.4989 14.0285 20.0018 14.6488 20.0018H19.3467C19.7221 20.002 20.0726 19.8142 20.2804 19.5016L21.4809 17.6982C21.6037 17.5131 21.6691 17.2959 21.669 17.0739V14.877V14.877C21.669 14.5791 21.5507 14.2934 21.3401 14.0828C21.1294 13.8722 20.8438 13.7538 20.5459 13.7538H18.4677V11.8437C18.4677 11.1925 17.9398 10.6646 17.2885 10.6646H16.6149C16.2198 10.6639 15.8535 10.8711 15.6505 11.2101L13.8458 14.2194C13.6364 14.5683 13.5257 14.9676 13.5256 15.3745V18.8786Z" stroke="white" stroke-width="1.5" stroke-linecap="round" stroke-linejoin="round"/>
<path fill-rule="evenodd" clip-rule="evenodd" d="M6.1712 22.8806L5.32889 26.6712L9.11945 25.8289C14.2258 29.4063 21.2195 28.487 25.2278 23.7114C29.2361 18.9358 28.9288 11.8885 24.5202 7.47988C20.1115 3.07121 13.0643 2.76399 8.28868 6.77226C3.51308 10.7805 2.59373 17.7743 6.1712 22.8806Z" stroke="white" stroke-width="1.5" stroke-linecap="round" stroke-linejoin="round"/>
</svg>
