<svg width="32" height="32" viewBox="0 0 32 32" fill="none" xmlns="http://www.w3.org/2000/svg">
<path fill-rule="evenodd" clip-rule="evenodd" d="M19.3347 27.3381V26.7966C19.3391 25.2558 20.5871 24.0078 22.1279 24.0034H26.5457C28.0865 24.0078 29.3345 25.2558 29.3389 26.7966V27.3381C29.3389 27.7065 29.0403 28.0051 28.6719 28.0051H20.0017C19.6333 28.0051 19.3347 27.7065 19.3347 27.3381Z" stroke="white" stroke-width="1.5" stroke-linecap="round" stroke-linejoin="round"/>
<path fill-rule="evenodd" clip-rule="evenodd" d="M21.7691 18.7211C21.4457 17.5623 21.9379 16.3304 22.9709 15.7136C24.0038 15.0967 25.3218 15.2476 26.1886 16.0818C27.0554 16.9161 27.2566 18.2273 26.6798 19.2831C26.103 20.3389 24.8909 20.8779 23.7205 20.5992C22.777 20.3745 22.0298 19.6553 21.7691 18.7211Z" stroke="white" stroke-width="1.5" stroke-linecap="round" stroke-linejoin="round"/>
<path fill-rule="evenodd" clip-rule="evenodd" d="M2.66113 24.6704V24.1289C2.66553 22.5881 3.9135 21.3401 5.4543 21.3357H9.87214C11.4129 21.3401 12.6609 22.5881 12.6653 24.1289V24.6704C12.6653 25.0388 12.3667 25.3374 11.9984 25.3374H3.32808C2.95973 25.3374 2.66113 25.0388 2.66113 24.6704Z" stroke="white" stroke-width="1.5" stroke-linecap="round" stroke-linejoin="round"/>
<path fill-rule="evenodd" clip-rule="evenodd" d="M5.09548 16.0533C4.77211 14.8945 5.26436 13.6627 6.29728 13.0458C7.33019 12.429 8.64817 12.5798 9.51501 13.4141C10.3819 14.2483 10.5831 15.5596 10.0062 16.6154C9.42941 17.6711 8.2173 18.2102 7.04696 17.9315C6.10342 17.7067 5.35619 16.9876 5.09548 16.0533Z" stroke="white" stroke-width="1.5" stroke-linecap="round" stroke-linejoin="round"/>
<ellipse cx="17.3339" cy="7.99669" rx="5.33556" ry="5.33556" stroke="white" stroke-width="1.5" stroke-linecap="round" stroke-linejoin="round"/>
<path d="M19.128 6.94043L16.887 9.18003L15.5398 7.8368" stroke="white" stroke-width="1.5" stroke-linecap="round" stroke-linejoin="round"/>
</svg>
