<svg width="32" height="32" viewBox="0 0 32 32" fill="none" xmlns="http://www.w3.org/2000/svg">
<path d="M11.8936 23.3343C12.935 24.3757 12.935 26.0641 11.8936 27.1055C10.8522 28.1469 9.16377 28.1469 8.12237 27.1055C7.08097 26.0641 7.08097 24.3757 8.12237 23.3343C9.16377 22.2929 10.8522 22.2929 11.8936 23.3343" stroke="white" stroke-width="1.5" stroke-linecap="round" stroke-linejoin="round"/>
<path d="M23.8776 23.3343C24.919 24.3757 24.919 26.0641 23.8776 27.1055C22.8362 28.1469 21.1478 28.1469 20.1064 27.1055C19.065 26.0641 19.065 24.3757 20.1064 23.3343C21.1478 22.2929 22.8362 22.2929 23.8776 23.3343" stroke="white" stroke-width="1.5" stroke-linecap="round" stroke-linejoin="round"/>
<path d="M8.19094 11.9383C9.23234 12.9797 9.23234 14.6681 8.19094 15.7095C7.14955 16.7509 5.46111 16.7509 4.41971 15.7095C3.37831 14.6681 3.37831 12.9797 4.41971 11.9383C5.4611 10.8969 7.14955 10.8969 8.19094 11.9383" stroke="white" stroke-width="1.5" stroke-linecap="round" stroke-linejoin="round"/>
<path d="M17.8856 4.89433C18.927 5.93573 18.927 7.62417 17.8856 8.66557C16.8442 9.70697 15.1558 9.70697 14.1144 8.66557C13.073 7.62417 13.073 5.93573 14.1144 4.89433C15.1558 3.85293 16.8442 3.85293 17.8856 4.89433" stroke="white" stroke-width="1.5" stroke-linecap="round" stroke-linejoin="round"/>
<path d="M27.5803 11.9383C28.6217 12.9797 28.6217 14.6681 27.5803 15.7095C26.5389 16.7509 24.8504 16.7509 23.809 15.7095C22.7676 14.6681 22.7676 12.9797 23.809 11.9383C24.8504 10.8969 26.5389 10.8969 27.5803 11.9383" stroke="white" stroke-width="1.5" stroke-linecap="round" stroke-linejoin="round"/>
<path d="M17.8856 14.7063C18.927 15.7477 18.927 17.4362 17.8856 18.4776C16.8442 19.519 15.1558 19.519 14.1144 18.4776C13.073 17.4362 13.073 15.7477 14.1144 14.7063C15.1558 13.6649 16.8442 13.6649 17.8856 14.7063" stroke="white" stroke-width="1.5" stroke-linecap="round" stroke-linejoin="round"/>
<path d="M17.52 18.7734L20.4667 23.0401" stroke="white" stroke-width="1.5" stroke-linecap="round" stroke-linejoin="round"/>
<path d="M14.48 18.7734L11.5333 23.0268" stroke="white" stroke-width="1.5" stroke-linecap="round" stroke-linejoin="round"/>
<path d="M13.4533 15.8667L8.85333 14.5467" stroke="white" stroke-width="1.5" stroke-linecap="round" stroke-linejoin="round"/>
<path d="M16 13.9198V9.45312" stroke="white" stroke-width="1.5" stroke-linecap="round" stroke-linejoin="round"/>
<path d="M18.5467 15.8667L23.1467 14.5467" stroke="white" stroke-width="1.5" stroke-linecap="round" stroke-linejoin="round"/>
</svg>
