<svg width="34" height="34" viewBox="0 0 34 34" fill="none" xmlns="http://www.w3.org/2000/svg">
<path d="M27.71 10.0853C30.43 14.2928 30.4286 19.7102 27.7114 23.9162" stroke="white" stroke-width="1.5" stroke-linecap="round" stroke-linejoin="round"/>
<path d="M22.0258 11.9743C24.8014 14.7499 24.8014 19.2501 22.0258 22.0257C19.2502 24.8013 14.75 24.8013 11.9744 22.0257C9.1988 19.2501 9.1988 14.7499 11.9744 11.9743C14.75 9.19867 19.2502 9.19867 22.0258 11.9743" stroke="white" stroke-width="1.5" stroke-linecap="round" stroke-linejoin="round"/>
<path d="M20.2881 10.6973L23.9488 6.25043C24.4814 5.60301 25.4561 5.55626 26.0497 6.14843L27.8531 7.95184C28.4467 8.54543 28.3985 9.52009 27.7511 10.0528L23.3042 13.7134" stroke="white" stroke-width="1.5" stroke-linecap="round" stroke-linejoin="round"/>
<path d="M13.712 23.3027L10.0513 27.7496C9.51864 28.397 8.54397 28.4438 7.95039 27.8516L6.14697 26.0482C5.55339 25.4546 5.60156 24.48 6.24897 23.9473L10.6959 20.2866" stroke="white" stroke-width="1.5" stroke-linecap="round" stroke-linejoin="round"/>
<path d="M10.6972 13.7119L6.2489 10.0512C5.60148 9.51858 5.55473 8.54391 6.1469 7.95033L7.95032 6.14691C8.5439 5.55333 9.51857 5.6015 10.0512 6.24891L13.7119 10.6958" stroke="white" stroke-width="1.5" stroke-linecap="round" stroke-linejoin="round"/>
<path d="M23.3028 20.288L27.7497 23.9486C28.3971 24.4813 28.4438 25.456 27.8517 26.0495L26.0483 27.853C25.4547 28.4466 24.48 28.3984 23.9473 27.751L20.2867 23.304" stroke="white" stroke-width="1.5" stroke-linecap="round" stroke-linejoin="round"/>
<path d="M23.9161 27.7115C19.71 30.4287 14.2913 30.4301 10.0852 27.7101" stroke="white" stroke-width="1.5" stroke-linecap="round" stroke-linejoin="round"/>
<path d="M6.2886 10.0839C3.57143 14.2899 3.57001 19.7073 6.29001 23.9148" stroke="white" stroke-width="1.5" stroke-linecap="round" stroke-linejoin="round"/>
<path d="M23.9147 6.29013C19.7072 3.57013 14.2899 3.57155 10.0838 6.28872" stroke="white" stroke-width="1.5" stroke-linecap="round" stroke-linejoin="round"/>
</svg>
