<svg width="510" height="299" viewBox="0 0 510 299" fill="none" xmlns="http://www.w3.org/2000/svg">
<path opacity="0.07" d="M347.414 67.072L4.07975 0L2.21635 8.38549C-9.89726 72.1963 28.7691 134.612 90.7265 152.781L25.5134 140.201L24.1151 147.654C12.4636 203.547 49.2665 257.115 106.567 268.291C111.224 373.093 199.737 456.003 308.283 456.003C420.087 456.003 509.998 367.969 509.998 259.908C509.533 164.422 440.119 85.2381 347.414 67.072ZM386.08 228.701L295.704 315.337C291.512 318.595 286.852 320.458 282.195 320.458C277.538 320.458 272.878 318.595 268.686 315.337L225.825 274.345C218.371 266.893 190.447 221.394 185.507 230.704C177.182 246.393 200.787 280.635 208.24 288.088L287.648 339.232L418.927 236.466C426.381 229.014 380.025 195.627 387.479 203.079C394.932 210.999 394.932 222.643 386.08 228.701Z" fill="#0D1B1E"/>
</svg>
